# This file uses centimeters as units for non-parametric coordinates.

mtllib boat.mtl
g default
v 0.892520 -0.198041 0.276883
v 0.761217 -0.198041 -1.413449
v 1.034646 0.500000 0.500000
v 0.882435 0.500000 -1.459504
v -1.034646 0.500000 0.500000
v -0.882435 0.500000 -1.459504
v -0.892520 -0.198041 0.276883
v -0.761217 -0.198041 -1.413449
v -0.746437 -0.192432 0.948417
v 0.749452 -0.195834 0.950243
v 0.871190 0.528095 1.282118
v -0.871190 0.528095 1.282118
v -0.404633 -0.180520 1.532493
v 0.408556 -0.186071 1.536051
v 0.478765 0.568927 2.044997
v -0.478765 0.568927 2.044997
v 0.003110 -0.151232 1.888156
v -0.000000 0.607232 2.460166
v -0.649238 -0.198041 -1.911791
v 0.649238 -0.198041 -1.911791
v -0.752624 0.524542 -1.980349
v 0.752624 0.524542 -1.980349
v -0.399343 -0.198041 -1.969727
v 0.399343 -0.198041 -1.969727
v -0.462937 0.600539 -2.065994
v 0.462937 0.600539 -2.065994
v -0.698815 -0.506835 0.067839
v -0.596009 -0.506835 -1.255637
v 0.596009 -0.506835 -1.255637
v 0.698815 -0.506835 0.067839
v 0.586835 -0.504701 0.595220
v -0.587286 -0.505303 0.595469
v 0.322136 -0.505270 1.059121
v -0.322443 -0.505520 1.059190
v -0.000155 -0.501473 1.311334
v -0.508334 -0.506835 -1.680009
v 0.508333 -0.506835 -1.680009
v -0.312673 -0.506835 -1.708977
v 0.312673 -0.506835 -1.708977
v 0.934863 0.500000 0.467666
v 0.797332 0.500000 -1.302860
v -0.797332 0.500000 -1.302860
v -0.934863 0.500000 0.467666
v -0.787171 0.528095 1.174355
v 0.787171 0.528095 1.174355
v -0.432592 0.568927 1.863661
v 0.432592 0.568927 1.863661
v -0.000000 0.607232 2.238790
v 0.680040 0.524542 -1.845660
v -0.680040 0.524542 -1.845660
v 0.418290 0.600539 -1.911851
v -0.418290 0.600539 -1.911851
v 0.896246 0.095170 0.366970
v 0.764396 0.095170 -1.330420
v -0.764396 0.095170 -1.330420
v -0.896246 0.095170 0.366970
v -0.754655 0.095170 1.044467
v 0.754655 0.095170 1.044467
v -0.414723 0.095170 1.705300
v 0.414723 0.095170 1.705300
v -0.000000 0.095170 2.064933
v 0.651949 0.095170 -1.854936
v -0.651949 0.095170 -1.854936
v 0.401012 0.095170 -1.913597
v -0.401012 0.095170 -1.913597
v 0.715286 -0.118888 0.145419
v 0.610057 -0.118888 -1.209253
v -0.610057 -0.118888 -1.209253
v -0.715286 -0.118888 0.145419
v -0.602284 -0.118888 0.686123
v 0.602284 -0.118888 0.686123
v -0.330987 -0.118888 1.213528
v 0.330987 -0.118888 1.213528
v -0.000000 -0.118888 1.500548
v 0.520315 -0.118888 -1.724108
v -0.520315 -0.118888 -1.724108
v 0.320044 -0.118888 -1.747489
v -0.320044 -0.118888 -1.747489
v 1.022059 0.438181 0.480241
v 0.863958 0.459923 1.254913
v 0.481966 0.476790 2.014998
v -0.000045 0.505798 2.430645
v -0.485485 0.470653 2.019456
v -0.867230 0.456308 1.256917
v -1.022059 0.438181 0.480241
v -0.871700 0.438181 -1.455425
v -0.743468 0.460550 -1.974277
v -0.457305 0.531033 -2.057468
v 0.457305 0.531032 -2.057468
v 0.743468 0.460549 -1.974277
v 0.871699 0.438181 -1.455425
v -0.000000 -0.118888 1.213528
v -0.000000 -0.118888 0.686123
v -0.000000 -0.118888 0.145419
v 0.000000 -0.118888 -1.209253
v 0.000000 -0.118888 -1.639699
v 0.000000 -0.118888 -1.747489
v 0.000000 0.095170 -1.913597
v 0.000000 0.626689 -1.911851
v 0.000000 0.626689 -2.065994
v -0.000000 0.557182 -2.057468
v 0.000000 -0.198041 -1.969727
v -0.000000 -0.506835 -1.708977
v -0.000000 -0.506835 -1.680009
v 0.000000 -0.506835 -1.255637
v -0.000000 -0.506835 0.067839
v -0.000000 -0.506835 0.596093
v -0.000000 -0.506835 1.059741
v -0.000000 -0.506835 1.314238
v 0.929036 0.438918 0.452473
v 0.782265 0.462774 1.154757
v 0.429896 0.497445 1.839767
v -0.000000 0.529970 2.212558
v -0.429896 0.497445 1.839767
v -0.782265 0.462774 1.154757
v -0.929036 0.438918 0.452473
v -0.792362 0.438918 -1.307019
v -0.675801 0.459757 -1.847060
v -0.415683 0.526360 -1.912115
v 0.000000 0.552509 -1.912115
v 0.415683 0.526360 -1.912115
v 0.675801 0.459757 -1.847060
v 0.792362 0.438918 -1.307019
v 0.917212 0.500000 0.458599
v 0.903153 0.487069 0.454660
v 0.770215 0.486162 -1.255870
v 0.781357 0.500000 -1.273462
v 0.776695 0.438918 -1.277923
v 0.767636 0.453402 -1.258028
v 0.900040 0.453340 0.446544
v 0.913581 0.438918 0.444031
v -0.903153 0.487069 0.454660
v -0.917212 0.500000 0.458599
v -0.781357 0.500000 -1.273462
v -0.770215 0.486162 -1.255870
v -0.913581 0.438918 0.444031
v -0.900040 0.453340 0.446544
v -0.767636 0.453402 -1.258028
v -0.776695 0.438918 -1.277923
v -0.760566 0.515581 1.137759
v -0.773648 0.527741 1.145723
v -0.771288 0.462418 1.127607
v -0.757775 0.477161 1.126609
v 0.773648 0.527741 1.145723
v 0.760566 0.515581 1.137759
v 0.757775 0.477161 1.126609
v 0.771288 0.462418 1.127607
v -0.418025 0.556706 1.804244
v -0.428439 0.568313 1.816072
v -0.428468 0.496785 1.795025
v -0.416396 0.512069 1.789811
v 0.428439 0.568313 1.816072
v 0.418025 0.556706 1.804244
v 0.416396 0.512069 1.789811
v 0.428468 0.496785 1.795025
v -0.000000 0.594876 2.167021
v -0.000000 0.607232 2.187626
v -0.000000 0.529970 2.165793
v -0.000000 0.544924 2.150615
v 0.656942 0.510347 -1.813194
v 0.666285 0.524542 -1.825361
v 0.662588 0.459757 -1.827409
v 0.654686 0.474695 -1.813939
v -0.666285 0.524542 -1.825361
v -0.656942 0.510347 -1.813194
v -0.654686 0.474695 -1.813939
v -0.662588 0.459757 -1.827409
v 0.404169 0.586797 -1.876975
v 0.409681 0.600539 -1.889830
v 0.407272 0.526360 -1.890460
v 0.402595 0.540493 -1.877134
v -0.407272 0.526360 -1.890460
v -0.402595 0.540493 -1.877134
v 0.000000 0.566156 -1.877136
v 0.000000 0.552509 -1.890800
v 0.000000 0.626689 -1.890593
v 0.000000 0.612995 -1.876975
v -0.404169 0.586797 -1.876975
v -0.409681 0.600539 -1.889830
v 1.070965 0.450224 0.498570
v 1.055649 0.438278 0.493724
v 0.888047 0.464103 1.298049
v 0.901538 0.474959 1.307497
v 1.066346 0.500133 0.514221
v 1.078349 0.484916 0.510162
v 0.908121 0.513170 1.325680
v 0.894341 0.528584 1.326968
v 0.485148 0.501447 2.076555
v 0.495281 0.511001 2.090677
v 0.499095 0.553545 2.119743
v 0.484875 0.569744 2.117949
v 0.000194 0.535916 2.498908
v 0.000168 0.546162 2.521199
v 0.000045 0.590843 2.552694
v -0.000000 0.607232 2.540219
v -0.484296 0.501488 2.075880
v -0.495281 0.511001 2.090677
v -0.499095 0.553545 2.119743
v -0.486318 0.569668 2.119087
v -0.887401 0.464121 1.297819
v -0.901538 0.474959 1.307497
v -0.908121 0.513170 1.325680
v -0.895268 0.528556 1.327297
v -1.055649 0.438278 0.493724
v -1.070965 0.450224 0.498571
v -1.078349 0.484916 0.510162
v -1.066346 0.500133 0.514221
v -0.919290 0.482612 -1.531951
v -0.914293 0.500000 -1.518143
v -0.902479 0.438181 -1.512632
v -0.913611 0.451326 -1.529793
v -0.768285 0.460550 -2.004461
v -0.779091 0.473336 -2.016547
v -0.784448 0.509151 -2.020099
v -0.776026 0.524542 -2.008655
v -0.472541 0.531033 -2.090368
v -0.479125 0.543841 -2.103884
v -0.482644 0.585386 -2.109211
v -0.477399 0.600539 -2.097109
v -0.000000 0.557182 -2.089394
v -0.000000 0.569944 -2.103878
v 0.000000 0.612183 -2.109294
v 0.000000 0.626689 -2.096551
v 0.768284 0.460549 -2.004461
v 0.779091 0.473336 -2.016547
v 0.479125 0.543840 -2.103884
v 0.472541 0.531032 -2.090368
v 0.784448 0.509151 -2.020099
v 0.776026 0.524542 -2.008655
v 0.477399 0.600539 -2.097109
v 0.482644 0.585386 -2.109211
v 0.901620 0.438181 -1.511036
v 0.913611 0.451326 -1.529793
v 0.919290 0.482612 -1.531951
v 0.913607 0.500000 -1.516881
v -0.826417 0.209995 1.017913
v -0.824950 0.224140 1.032059
v -0.840638 0.224140 1.017998
v 0.840638 0.224140 1.017998
v 0.825664 0.223427 1.032059
v 0.826417 0.209995 1.017913
v -0.840638 0.295849 1.017998
v -0.825664 0.296562 1.032059
v -0.826417 0.309995 1.017913
v 0.826417 0.309995 1.017913
v 0.824950 0.295849 1.032059
v 0.840638 0.295849 1.017998
v -0.881335 0.295009 0.646956
v -0.867187 0.309995 0.646205
v -0.867983 0.295009 0.632059
v 0.867983 0.295009 0.632059
v 0.867187 0.309995 0.646205
v 0.881335 0.295009 0.646956
v -0.881427 0.224140 0.646120
v -0.867983 0.224981 0.632059
v -0.867187 0.209995 0.646205
v 0.867187 0.209995 0.646205
v 0.868824 0.224140 0.632059
v 0.881427 0.224140 0.646120
v -0.048491 0.344381 2.204844
v -0.043238 0.358723 2.218368
v -0.061891 0.358723 2.210404
v 0.061891 0.358723 2.210404
v 0.043087 0.358919 2.218368
v 0.048491 0.344381 2.204844
v -0.061891 0.430040 2.210404
v -0.043087 0.429844 2.218368
v -0.048491 0.444381 2.204844
v 0.048491 0.444381 2.204844
v 0.043238 0.430040 2.218368
v 0.061891 0.430040 2.210404
v -0.467599 0.430182 1.783891
v -0.451937 0.444381 1.782551
v 0.451937 0.444381 1.782551
v 0.467599 0.430182 1.783891
v -0.451937 0.344381 1.782551
v -0.467599 0.358580 1.783891
v 0.467599 0.358580 1.783891
v 0.451937 0.344381 1.782551
v -0.716709 0.431080 1.392053
v -0.699378 0.444381 1.390841
v -0.707653 0.431080 1.375565
v 0.707653 0.431080 1.375565
v 0.699378 0.444381 1.390841
v 0.716709 0.431080 1.392053
v 0.707033 0.358105 1.375565
v 0.716709 0.357683 1.392053
v 0.699378 0.344381 1.390841
v -0.707653 0.357683 1.375565
v -0.699378 0.344381 1.390841
v -0.716709 0.357683 1.392053
v -0.885155 0.188123 -0.232223
v -0.886815 0.202268 -0.218078
v -0.899397 0.202268 -0.232136
v 0.899397 0.202268 -0.232136
v 0.885962 0.203121 -0.218078
v 0.885155 0.188123 -0.232223
v -0.899397 0.273977 -0.232136
v -0.885962 0.273124 -0.218078
v -0.885155 0.288123 -0.232223
v 0.885155 0.288123 -0.232223
v 0.886815 0.273977 -0.218078
v 0.899397 0.273977 -0.232136
v -0.857969 0.274699 -0.604737
v -0.843826 0.288123 -0.603932
v -0.843063 0.274699 -0.618078
v 0.843063 0.274699 -0.618078
v 0.843826 0.288123 -0.603932
v 0.857969 0.274699 -0.604737
v -0.858049 0.202268 -0.604019
v -0.843063 0.201546 -0.618078
v -0.843826 0.188123 -0.603932
v 0.843826 0.188123 -0.603932
v 0.842340 0.202268 -0.618078
v 0.858049 0.202268 -0.604019
v -0.818274 0.283162 -1.256777
v -0.820175 0.297208 -1.242340
v -0.832808 0.297208 -1.257668
v 0.832808 0.297208 -1.257668
v 0.820286 0.297108 -1.242340
v 0.818274 0.283162 -1.256777
v -0.832808 0.369116 -1.257668
v -0.820286 0.369216 -1.242340
v -0.818274 0.383162 -1.256777
v 0.818274 0.383162 -1.256777
v 0.820175 0.369116 -1.242340
v 0.832808 0.369116 -1.257668
v -0.698967 0.370200 -1.945603
v -0.684833 0.383162 -1.944181
v -0.683530 0.370200 -1.958326
v 0.683530 0.370200 -1.958326
v 0.684833 0.383162 -1.944181
v 0.698967 0.370200 -1.945603
v -0.699193 0.297307 -1.944441
v -0.683530 0.296124 -1.958326
v -0.684833 0.283162 -1.944181
v 0.684833 0.283162 -1.944181
v 0.682346 0.297307 -1.958326
v 0.699193 0.297307 -1.944441
vt 0.082515 0.340571
vt 0.085807 0.549469
vt 0.003580 0.555650
vt 0.001992 0.308346
vt 0.584305 0.307118
vt 0.584306 0.478243
vt 0.506621 0.477028
vt 0.497231 0.307153
vt 0.412362 0.317753
vt 0.403223 0.560486
vt 0.322534 0.552135
vt 0.332558 0.344997
vt 0.289935 0.370533
vt 0.279498 0.531634
vt 0.204895 0.531704
vt 0.207812 0.369218
vt 0.202987 0.740596
vt 0.203774 0.641487
vt 0.255245 0.641695
vt 0.263142 0.737345
vt 0.209667 0.304453
vt 0.280084 0.308517
vt 0.022295 0.195643
vt 0.101608 0.254300
vt 0.584305 0.240427
vt 0.509816 0.241656
vt 0.398245 0.210743
vt 0.319422 0.263717
vt 0.211879 0.244231
vt 0.252995 0.248936
vt 0.068431 0.081496
vt 0.138597 0.174201
vt 0.584304 0.172946
vt 0.541552 0.174726
vt 0.362278 0.098098
vt 0.288897 0.182110
vt 0.213675 0.206757
vt 0.213656 0.207167
vt 0.118672 0.003048
vt 0.181743 0.110506
vt 0.627057 0.174726
vt 0.584305 0.132375
vt 0.320085 0.019374
vt 0.251538 0.117189
vt 0.204278 0.585656
vt 0.270686 0.586281
vt 0.400260 0.628859
vt 0.315635 0.616783
vt 0.584306 0.533515
vt 0.515753 0.544259
vt 0.004794 0.625284
vt 0.091205 0.615242
vt 0.204236 0.589380
vt 0.244983 0.589651
vt 0.288679 0.639281
vt 0.302066 0.726484
vt 0.584305 0.547453
vt 0.542300 0.547241
vt 0.142880 0.736416
vt 0.104128 0.724949
vt 0.118852 0.637957
vt 0.152260 0.640883
vt 0.125005 0.367514
vt 0.129972 0.529884
vt 0.138486 0.304396
vt 0.170122 0.245461
vt 0.137626 0.585149
vt 0.163364 0.588958
vt 0.903108 0.270502
vt 0.893796 0.546943
vt 0.880499 0.525687
vt 0.889432 0.274833
vt 0.795938 0.544034
vt 0.772799 0.270655
vt 0.786514 0.274225
vt 0.808110 0.522136
vt 0.771781 0.172545
vt 0.785183 0.181849
vt 0.897877 0.170408
vt 0.884955 0.180681
vt 0.776639 0.076772
vt 0.790943 0.091814
vt 0.886731 0.075437
vt 0.873539 0.091260
vt 0.788458 0.009559
vt 0.856862 0.029504
vt 0.887686 0.621709
vt 0.954235 0.435588
vt 0.977684 0.622915
vt 0.819257 0.602626
vt 0.979336 0.471332
vt 0.959019 0.476170
vt 0.960159 0.530326
vt 0.979590 0.529925
vt 0.980817 0.585997
vt 0.961904 0.582414
vt 0.705129 0.279024
vt 0.695320 0.492614
vt 0.661988 0.477025
vt 0.671380 0.307156
vt 0.473295 0.492613
vt 0.463481 0.279030
vt 0.480535 0.195505
vt 0.688074 0.195505
vt 0.658793 0.241656
vt 0.518859 0.108644
vt 0.649750 0.108643
vt 0.563234 0.049284
vt 0.686619 0.561942
vt 0.652857 0.544259
vt 0.498006 0.579494
vt 0.636569 0.582161
vt 0.626314 0.547240
vt 0.584306 0.582700
vt 0.532042 0.582161
vt 0.731082 0.168811
vt 0.748405 0.266753
vt 0.691643 0.070210
vt 0.519112 0.001944
vt 0.476966 0.070211
vt 0.437526 0.168812
vt 0.420204 0.266752
vt 0.429051 0.492051
vt 0.492656 0.628763
vt 0.528604 0.639103
vt 0.584306 0.643234
vt 0.640009 0.639102
vt 0.734943 0.565160
vt 0.739558 0.492049
vt 0.886986 0.276067
vt 0.884333 0.276593
vt 0.880172 0.184424
vt 0.882501 0.183748
vt 0.877977 0.521679
vt 0.875396 0.519240
vt 0.872008 0.601981
vt 0.948040 0.438022
vt 0.867981 0.521855
vt 0.870707 0.519332
vt 0.864641 0.599858
vt 0.939831 0.436838
vt 0.876918 0.278006
vt 0.879631 0.277683
vt 0.873196 0.186936
vt 0.875536 0.186226
vt 0.791635 0.275693
vt 0.788992 0.275314
vt 0.787795 0.184722
vt 0.790135 0.185249
vt 0.812859 0.515415
vt 0.810414 0.517997
vt 0.823793 0.597865
vt 0.956555 0.616027
vt 0.799028 0.276688
vt 0.796334 0.276518
vt 0.794824 0.186755
vt 0.797178 0.187323
vt 0.820397 0.517582
vt 0.817541 0.515230
vt 0.831701 0.598245
vt 0.949555 0.616232
vt 0.793992 0.096406
vt 0.796183 0.097155
vt 0.801312 0.099322
vt 0.803529 0.100046
vt 0.868678 0.096893
vt 0.870803 0.096015
vt 0.861564 0.100209
vt 0.863722 0.099357
vt 0.807336 0.032979
vt 0.852195 0.036350
vt 0.814138 0.037758
vt 0.845083 0.038927
vt 0.955987 0.477159
vt 0.953342 0.477573
vt 0.946878 0.477219
vt 0.944127 0.476669
vt 0.956622 0.581326
vt 0.959071 0.581606
vt 0.948240 0.582663
vt 0.950720 0.581977
vt 0.957475 0.530403
vt 0.955038 0.530476
vt 0.949074 0.530673
vt 0.946591 0.530765
vt 0.914811 0.270823
vt 0.917425 0.271520
vt 0.908376 0.554404
vt 0.905619 0.556720
vt 0.908934 0.167925
vt 0.911219 0.168294
vt 0.897979 0.070886
vt 0.900034 0.071222
vt 0.907416 0.268586
vt 0.910027 0.269175
vt 0.901193 0.556774
vt 0.898642 0.554679
vt 0.901792 0.165908
vt 0.904144 0.166443
vt 0.890619 0.068674
vt 0.892828 0.069173
vt 0.883932 0.003275
vt 0.772565 0.004792
vt 0.876239 0.003237
vt 0.780702 0.001915
vt 0.764923 0.072933
vt 0.762777 0.073402
vt 0.772077 0.070210
vt 0.770000 0.070872
vt 0.760660 0.170841
vt 0.758363 0.171358
vt 0.767513 0.168366
vt 0.765295 0.169055
vt 0.761273 0.271578
vt 0.758731 0.272402
vt 0.768450 0.268986
vt 0.765905 0.269702
vt 0.784526 0.554386
vt 0.781770 0.552399
vt 0.791383 0.552176
vt 0.788961 0.554226
vt 0.802352 0.625132
vt 0.984148 0.626014
vt 0.794172 0.626966
vt 0.991179 0.626505
vt 0.991546 0.588450
vt 0.993833 0.588088
vt 0.984522 0.587357
vt 0.986716 0.588071
vt 0.991236 0.529802
vt 0.993689 0.529789
vt 0.983432 0.529878
vt 0.985858 0.529850
vt 0.990894 0.468455
vt 0.993371 0.468810
vt 0.983313 0.469780
vt 0.985673 0.468961
vt 0.902387 0.625328
vt 0.987630 0.425013
vt 0.894396 0.626419
vt 0.979937 0.427141
vt 0.865177 0.525580
vt 0.874843 0.276790
vt 0.801010 0.275376
vt 0.823393 0.521124
vt 0.799496 0.184678
vt 0.870695 0.184397
vt 0.806942 0.096399
vt 0.857958 0.096783
vt 0.820984 0.034762
vt 0.859355 0.603340
vt 0.944178 0.618023
vt 0.941008 0.476050
vt 0.945434 0.583471
vt 0.943843 0.530875
vt 0.915863 0.171911
vt 0.921943 0.273427
vt 0.905457 0.075918
vt 0.893590 0.007954
vt 0.757761 0.078313
vt 0.754472 0.175160
vt 0.754373 0.274518
vt 0.775987 0.545364
vt 0.786066 0.623299
vt 0.998008 0.586762
vt 0.997753 0.529778
vt 0.995722 0.427170
vt 0.997884 0.470202
vt 0.913650 0.547313
vt 0.605374 0.049284
vt 0.649496 0.001944
vt 0.481993 0.561943
vt 0.433669 0.565161
vt 0.670607 0.579493
vt 0.675957 0.628762
vt 0.870954 0.010034
vt 0.782688 0.003003
vt 0.886318 0.004415
vt 0.765464 0.008876
vt 0.803925 0.028397
vt 0.853774 0.034228
vt 0.878135 0.002054
vt 0.774909 0.003492
vt 0.809063 0.035025
vt 0.847353 0.039347
vt 0.975259 0.429322
vt 0.891726 0.625043
vt 0.990516 0.425383
vt 0.907217 0.622557
vt 0.861928 0.601212
vt 0.936469 0.436074
vt 0.874302 0.604591
vt 0.951010 0.437272
vt 0.982575 0.425878
vt 0.899631 0.626391
vt 0.869613 0.600274
vt 0.942860 0.437669
vt 0.806384 0.621393
vt 0.981815 0.624879
vt 0.791241 0.625982
vt 0.995804 0.624957
vt 0.834473 0.600217
vt 0.947010 0.617146
vt 0.821447 0.599784
vt 0.959381 0.617255
vt 0.799640 0.626727
vt 0.988621 0.626812
vt 0.828843 0.597070
vt 0.953975 0.615581
vt 0.816404 0.037197
vt 0.840418 0.036794
vt 0.899742 0.849484
vt 0.900151 0.852457
vt 0.851219 0.857523
vt 0.851246 0.854911
vt 0.909910 0.848430
vt 0.899531 0.634167
vt 0.902070 0.634249
vt 0.916454 0.855266
vt 0.918533 0.846961
vt 0.920158 0.848401
vt 0.899692 0.631563
vt 0.851023 0.628856
vt 0.851010 0.626252
vt 0.908077 0.627134
vt 0.912335 0.633669
vt 0.910772 0.635284
vt 0.920788 0.846707
vt 0.966460 0.849202
vt 0.967256 0.850746
vt 0.913097 0.635293
vt 0.959182 0.627899
vt 0.958479 0.629489
vt 0.968801 0.849407
vt 0.976997 0.849996
vt 0.970626 0.857051
vt 0.960801 0.629117
vt 0.962190 0.621419
vt 0.969003 0.627803
vt 0.848566 0.855035
vt 0.848422 0.628630
vt 0.440498 0.839977
vt 0.438065 0.841373
vt 0.384508 0.782280
vt 0.387308 0.781525
vt 0.441067 0.842672
vt 0.453574 0.839975
vt 0.452989 0.842686
vt 0.434799 0.607348
vt 0.439239 0.606267
vt 0.441831 0.613589
vt 0.439735 0.614078
vt 0.456009 0.841371
vt 0.506773 0.781530
vt 0.509572 0.782283
vt 0.454787 0.606272
vt 0.459265 0.607343
vt 0.454336 0.614073
vt 0.452242 0.613600
vt 0.441535 0.615338
vt 0.389997 0.664239
vt 0.387399 0.663436
vt 0.452537 0.615335
vt 0.506668 0.663438
vt 0.504072 0.664242
vt 0.358360 0.713558
vt 0.356422 0.714196
vt 0.537673 0.714203
vt 0.535733 0.713577
vt 0.353526 0.727315
vt 0.356475 0.726811
vt 0.537612 0.726829
vt 0.540557 0.727327
vt 0.357020 0.715751
vt 0.355497 0.723983
vt 0.350169 0.713780
vt 0.537075 0.715771
vt 0.543943 0.713692
vt 0.538511 0.723965
vt 0.714632 0.859504
vt 0.714696 0.862478
vt 0.666512 0.853917
vt 0.666841 0.851336
vt 0.724447 0.860656
vt 0.728194 0.630680
vt 0.730860 0.630712
vt 0.731185 0.867335
vt 0.732826 0.859619
vt 0.734367 0.860847
vt 0.728354 0.628115
vt 0.679865 0.633187
vt 0.679859 0.630604
vt 0.737983 0.624215
vt 0.740703 0.630910
vt 0.739168 0.631982
vt 0.735201 0.859317
vt 0.781163 0.854882
vt 0.781933 0.856493
vt 0.741447 0.632509
vt 0.787926 0.637894
vt 0.787085 0.639470
vt 0.783429 0.855037
vt 0.792140 0.856215
vt 0.785941 0.863236
vt 0.789359 0.639442
vt 0.792247 0.631341
vt 0.798046 0.638850
vt 0.664328 0.851101
vt 0.677271 0.633209
vt 0.096487 0.951534
vt 0.096183 0.954222
vt 0.004248 0.936574
vt 0.004540 0.933902
vt 0.099206 0.951770
vt 0.098048 0.739598
vt 0.100675 0.739388
vt 0.108463 0.959313
vt 0.107718 0.950493
vt 0.109566 0.951871
vt 0.097907 0.736946
vt 0.006970 0.755233
vt 0.006860 0.752574
vt 0.109437 0.732104
vt 0.110705 0.739425
vt 0.108944 0.740776
vt 0.110008 0.949946
vt 0.198015 0.932895
vt 0.198790 0.934780
vt 0.111181 0.741329
vt 0.198623 0.756798
vt 0.197917 0.758682
vt 0.200243 0.933016
vt 0.209140 0.934329
vt 0.202718 0.942315
vt 0.200141 0.758568
vt 0.202268 0.749282
vt 0.208889 0.757437
vt 0.001992 0.933714
vt 0.004303 0.755523
vt 0.513770 0.657356
vt 0.380291 0.657355
vt 0.004402 0.754097
vn 0.981527 -0.175476 -0.076244
vn 0.981527 -0.175476 -0.076244
vn 0.981527 -0.175476 -0.076244
vn 0.981527 -0.175476 -0.076244
vn 0.000000 1.000000 0.000000
vn 0.000000 1.000000 0.000000
vn 0.000000 1.000000 0.000000
vn 0.000000 1.000000 0.000000
vn -0.981527 -0.175476 -0.076244
vn -0.981527 -0.175476 -0.076244
vn -0.981527 -0.175476 -0.076244
vn -0.981527 -0.175476 -0.076244
vn 0.000000 -1.000000 0.000000
vn 0.000000 -1.000000 0.000000
vn 0.000000 -1.000000 0.000000
vn 0.000000 -1.000000 0.000000
vn 0.000000 -0.117270 -0.993100
vn 0.000000 -0.117270 -0.993100
vn 0.003580 -0.117270 -0.993094
vn 0.003580 -0.117270 -0.993094
vn -0.001192 -0.999998 0.001577
vn 0.000234 -0.999998 0.001888
vn 0.000234 -0.999998 0.001888
vn -0.001192 -0.999998 0.001577
vn 0.945173 -0.257510 0.200841
vn 0.945173 -0.257510 0.200841
vn 0.945173 -0.257510 0.200841
vn 0.945173 -0.257510 0.200841
vn 0.000000 1.000000 -0.000000
vn 0.000000 1.000000 -0.000000
vn 0.000000 1.000000 0.000000
vn 0.000000 1.000000 0.000000
vn -0.943578 -0.263645 0.200380
vn -0.943578 -0.263645 0.200380
vn -0.943578 -0.263646 0.200380
vn -0.943578 -0.263645 0.200380
vn -0.003131 -0.999995 0.000660
vn 0.000470 -1.000000 0.000604
vn 0.000469 -1.000000 0.000604
vn -0.003131 -0.999995 0.000660
vn 0.811972 -0.379345 0.443621
vn 0.811972 -0.379345 0.443621
vn 0.811972 -0.379345 0.443621
vn 0.811972 -0.379345 0.443621
vn 0.000000 1.000000 0.000000
vn 0.000000 1.000000 0.000000
vn 0.000000 1.000000 0.000000
vn 0.000000 1.000000 0.000000
vn -0.806104 -0.394801 0.440826
vn -0.806104 -0.394802 0.440826
vn -0.806104 -0.394802 0.440826
vn -0.806104 -0.394801 0.440826
vn -0.020919 -0.999555 0.021292
vn 0.000392 -0.999773 0.021310
vn 0.000391 -0.999773 0.021310
vn -0.020919 -0.999555 0.021292
vn 0.529697 -0.536559 0.656906
vn 0.529697 -0.536559 0.656906
vn 0.529697 -0.536559 0.656906
vn 0.529697 -0.536559 0.656906
vn 0.000000 1.000000 0.000000
vn 0.000000 1.000000 0.000000
vn 0.000000 1.000000 0.000000
vn -0.521789 -0.547989 0.653792
vn -0.521789 -0.547989 0.653792
vn -0.521789 -0.547989 0.653792
vn -0.521789 -0.547989 0.653792
vn 0.000000 -1.000000 -0.000000
vn 0.000000 -1.000000 -0.000000
vn 0.000000 -1.000000 -0.000000
vn 0.000000 -1.000000 -0.000000
vn -0.958213 -0.170053 -0.230022
vn -0.958213 -0.170053 -0.230022
vn -0.958213 -0.170053 -0.230022
vn -0.958213 -0.170053 -0.230022
vn 0.000000 1.000000 -0.000000
vn 0.000000 1.000000 -0.000000
vn 0.000000 1.000000 -0.000000
vn 0.000000 1.000000 -0.000000
vn 0.958213 -0.170052 -0.230022
vn 0.958213 -0.170052 -0.230022
vn 0.958213 -0.170052 -0.230022
vn 0.958213 -0.170052 -0.230022
vn 0.000000 -1.000000 0.000000
vn 0.000000 -1.000000 0.000000
vn 0.000000 -1.000000 0.000000
vn 0.000000 -1.000000 0.000000
vn -0.236386 -0.130168 -0.962901
vn -0.236386 -0.130168 -0.962901
vn -0.236386 -0.130168 -0.962901
vn -0.236386 -0.130168 -0.962901
vn 0.000000 1.000000 0.000000
vn 0.000000 1.000000 0.000000
vn 0.000000 1.000000 0.000000
vn 0.000000 1.000000 0.000000
vn 0.236384 -0.130168 -0.962901
vn 0.236384 -0.130168 -0.962901
vn 0.236384 -0.130168 -0.962901
vn 0.236384 -0.130168 -0.962901
vn -0.865056 -0.497155 -0.067196
vn -0.865056 -0.497156 -0.067196
vn -0.865056 -0.497156 -0.067196
vn -0.865056 -0.497155 -0.067196
vn 0.865056 -0.497156 -0.067196
vn 0.865056 -0.497156 -0.067196
vn 0.865056 -0.497156 -0.067196
vn 0.865056 -0.497156 -0.067196
vn 0.779801 -0.603115 0.167818
vn 0.779801 -0.603115 0.167818
vn 0.779801 -0.603115 0.167818
vn 0.779801 -0.603115 0.167818
vn -0.782116 -0.599044 0.171587
vn -0.782116 -0.599044 0.171587
vn -0.782116 -0.599044 0.171587
vn -0.782116 -0.599044 0.171587
vn 0.605907 -0.711541 0.355790
vn 0.605907 -0.711541 0.355790
vn 0.605907 -0.711541 0.355790
vn 0.605907 -0.711541 0.355790
vn -0.613038 -0.701845 0.362765
vn -0.613038 -0.701845 0.362765
vn -0.613038 -0.701845 0.362766
vn -0.613038 -0.701845 0.362765
vn 0.355541 -0.802322 0.479447
vn 0.355541 -0.802322 0.479447
vn 0.355541 -0.802322 0.479447
vn 0.355541 -0.802322 0.479447
vn -0.366346 -0.794927 0.483612
vn -0.366346 -0.794927 0.483613
vn -0.366346 -0.794927 0.483613
vn -0.366346 -0.794927 0.483612
vn -0.831476 -0.525623 -0.179913
vn -0.831476 -0.525623 -0.179913
vn -0.831476 -0.525623 -0.179913
vn -0.831476 -0.525622 -0.179913
vn 0.831476 -0.525623 -0.179913
vn 0.831476 -0.525623 -0.179913
vn 0.831476 -0.525623 -0.179913
vn 0.831476 -0.525623 -0.179913
vn -0.145627 -0.649105 -0.746629
vn -0.145627 -0.649105 -0.746629
vn -0.145627 -0.649105 -0.746629
vn -0.145627 -0.649105 -0.746629
vn 0.000000 -0.645167 -0.764042
vn 0.000000 -0.645167 -0.764042
vn 0.000000 -0.645167 -0.764042
vn 0.000000 -0.645167 -0.764042
vn 0.145627 -0.649105 -0.746629
vn 0.145627 -0.649105 -0.746629
vn 0.145627 -0.649105 -0.746629
vn 0.145627 -0.649105 -0.746629
vn 0.007345 0.999918 -0.010453
vn 0.020854 0.999711 0.011939
vn 0.007283 0.999965 0.004095
vn 0.006853 0.999938 -0.008755
vn -0.020773 0.999714 0.011892
vn -0.007354 0.999919 -0.010436
vn -0.006853 0.999938 -0.008755
vn -0.007283 0.999965 0.004095
vn -0.045256 0.998582 -0.028025
vn -0.040746 0.998725 -0.029813
vn 0.045202 0.998584 -0.028053
vn 0.040746 0.998725 -0.029814
vn -0.067609 0.997593 -0.015417
vn -0.065830 0.997638 -0.019599
vn 0.067670 0.997589 -0.015389
vn 0.065830 0.997638 -0.019599
vn -0.000265 0.999964 -0.008507
vn 0.000000 0.999961 -0.008832
vn 0.143172 0.987265 0.069353
vn 0.126706 0.990265 0.057620
vn -0.142902 0.987312 0.069233
vn -0.126706 0.990265 0.057620
vn 0.134176 0.989691 0.050082
vn 0.127775 0.990837 0.043773
vn 0.000000 0.999959 0.009057
vn 0.000000 0.999956 0.009377
vn -0.134176 0.989691 0.050081
vn -0.127775 0.990837 0.043773
vn -0.792745 0.606435 0.061579
vn -0.792745 0.606435 0.061579
vn -0.792745 0.606435 0.061579
vn -0.792745 0.606435 0.061579
vn 0.792745 0.606435 0.061579
vn 0.792745 0.606435 0.061579
vn 0.792745 0.606435 0.061579
vn 0.792745 0.606435 0.061579
vn 0.678711 0.720578 -0.141845
vn 0.678711 0.720578 -0.141845
vn 0.678711 0.720578 -0.141845
vn 0.678711 0.720578 -0.141845
vn -0.678711 0.720578 -0.141845
vn -0.678711 0.720578 -0.141845
vn -0.678711 0.720578 -0.141845
vn -0.678711 0.720578 -0.141845
vn 0.517171 0.813487 -0.266033
vn 0.517171 0.813487 -0.266033
vn 0.517171 0.813487 -0.266033
vn 0.517171 0.813487 -0.266033
vn -0.517171 0.813487 -0.266033
vn -0.517171 0.813487 -0.266033
vn -0.517171 0.813487 -0.266033
vn -0.517171 0.813487 -0.266033
vn 0.293935 0.893704 -0.338961
vn 0.293935 0.893704 -0.338961
vn 0.293935 0.893704 -0.338961
vn 0.293935 0.893704 -0.338961
vn -0.293935 0.893705 -0.338961
vn -0.293935 0.893704 -0.338961
vn -0.293935 0.893704 -0.338961
vn -0.293935 0.893704 -0.338961
vn -0.778471 0.609139 0.151436
vn -0.778471 0.609139 0.151436
vn -0.778471 0.609139 0.151436
vn -0.778471 0.609139 0.151436
vn 0.778471 0.609139 0.151436
vn 0.778471 0.609139 0.151436
vn 0.778471 0.609139 0.151436
vn 0.778471 0.609139 0.151436
vn -0.141660 0.610710 0.779080
vn -0.141660 0.610710 0.779080
vn -0.141660 0.610710 0.779080
vn -0.141660 0.610710 0.779080
vn 0.000000 0.613064 0.790033
vn 0.000000 0.613064 0.790033
vn 0.000000 0.613064 0.790033
vn 0.000000 0.613064 0.790033
vn 0.141660 0.610710 0.779080
vn 0.141660 0.610710 0.779080
vn 0.141660 0.610710 0.779080
vn 0.141660 0.610710 0.779080
vn 0.000000 1.000000 0.000000
vn 0.000000 1.000000 0.000000
vn 0.000000 1.000000 -0.000000
vn 0.000000 1.000000 -0.000000
vn 0.000000 1.000000 0.000000
vn 0.000000 1.000000 0.000000
vn 0.000000 1.000000 0.000000
vn 0.000000 1.000000 0.000000
vn 0.000000 1.000000 0.000000
vn 0.000000 1.000000 0.000000
vn 0.000000 0.613064 0.790033
vn 0.000000 0.613064 0.790033
vn -0.003580 -0.117270 -0.993094
vn -0.003580 -0.117270 -0.993094
vn 0.000000 -0.645167 -0.764042
vn 0.000000 -0.645167 -0.764042
vn 0.000000 -1.000000 0.000000
vn 0.000000 -1.000000 0.000000
vn 0.000000 -1.000000 -0.000000
vn 0.000000 -1.000000 -0.000000
vn 0.000000 -1.000000 0.000000
vn 0.000000 -1.000000 0.000000
vn 0.001662 -0.999996 0.002198
vn 0.001662 -0.999996 0.002198
vn 0.004072 -0.999992 0.000549
vn 0.004072 -0.999992 0.000549
vn 0.021741 -0.999536 0.021318
vn 0.021741 -0.999536 0.021318
vn 0.000000 1.000000 0.000000
vn -0.968913 0.138663 -0.204891
vn -0.968913 0.138663 -0.204891
vn -0.968913 0.138663 -0.204891
vn -0.968913 0.138663 -0.204891
vn -0.870619 0.192335 -0.452802
vn -0.870619 0.192335 -0.452802
vn -0.870619 0.192335 -0.452801
vn -0.870619 0.192335 -0.452801
vn -0.627090 0.258942 -0.734648
vn -0.627090 0.258942 -0.734648
vn -0.627090 0.258942 -0.734648
vn -0.627090 0.258942 -0.734648
vn 0.627090 0.258942 -0.734648
vn 0.627090 0.258942 -0.734648
vn 0.627090 0.258942 -0.734648
vn 0.627090 0.258942 -0.734648
vn 0.870619 0.192335 -0.452802
vn 0.870619 0.192335 -0.452802
vn 0.870619 0.192335 -0.452802
vn 0.870619 0.192335 -0.452802
vn 0.968913 0.138664 -0.204892
vn 0.968913 0.138664 -0.204892
vn 0.968913 0.138664 -0.204892
vn 0.968913 0.138664 -0.204892
vn 0.994142 0.075623 0.077223
vn 0.994142 0.075623 0.077223
vn 0.994142 0.075623 0.077223
vn 0.994142 0.075623 0.077223
vn 0.975501 0.062043 0.211064
vn 0.975501 0.062043 0.211064
vn 0.975501 0.062043 0.211064
vn 0.975501 0.062043 0.211064
vn 0.235290 -0.000040 0.971925
vn 0.235290 -0.000040 0.971925
vn 0.235290 -0.000040 0.971925
vn 0.235290 -0.000040 0.971925
vn 0.000000 -0.003336 0.999994
vn 0.000000 -0.003336 0.999994
vn 0.000107 -0.003336 0.999994
vn 0.000107 -0.003336 0.999995
vn -0.000107 -0.003336 0.999994
vn -0.000107 -0.003336 0.999995
vn -0.235290 -0.000040 0.971925
vn -0.235290 -0.000040 0.971925
vn -0.235290 -0.000040 0.971925
vn -0.235290 -0.000040 0.971925
vn -0.975501 0.062043 0.211064
vn -0.975501 0.062043 0.211064
vn -0.975501 0.062043 0.211064
vn -0.975501 0.062043 0.211064
vn -0.994142 0.075622 0.077223
vn -0.994142 0.075622 0.077223
vn -0.994142 0.075622 0.077223
vn -0.994142 0.075622 0.077223
vn -0.689045 0.724461 -0.019333
vn -0.695757 0.718277 0.000426
vn -0.585643 0.775507 -0.235819
vn -0.573035 0.778883 -0.254899
vn -0.707011 0.698426 0.111068
vn -0.711534 0.699256 0.068997
vn -0.697790 0.694805 0.174169
vn -0.697790 0.694805 0.174169
vn -0.773732 -0.625716 0.099087
vn -0.765651 -0.639618 0.068325
vn -0.782571 -0.607163 0.137605
vn -0.782571 -0.607163 0.137605
vn -0.757838 -0.652304 0.013465
vn -0.755222 -0.655452 -0.004799
vn -0.714564 -0.665510 -0.215627
vn -0.708793 -0.662948 -0.241066
vn 0.695757 0.718277 0.000426
vn 0.689045 0.724461 -0.019333
vn 0.573035 0.778883 -0.254899
vn 0.585643 0.775507 -0.235819
vn 0.711534 0.699256 0.068997
vn 0.707011 0.698426 0.111068
vn 0.697790 0.694805 0.174170
vn 0.697790 0.694805 0.174170
vn 0.757838 -0.652304 0.013465
vn 0.755222 -0.655452 -0.004799
vn 0.708793 -0.662948 -0.241066
vn 0.714564 -0.665509 -0.215627
vn 0.773732 -0.625716 0.099087
vn 0.765651 -0.639618 0.068325
vn 0.782571 -0.607163 0.137605
vn 0.782571 -0.607163 0.137605
vn 0.440496 0.801785 -0.403861
vn 0.461494 0.799458 -0.384566
vn 0.626497 -0.637367 -0.448625
vn 0.644209 -0.642595 -0.414809
vn -0.461494 0.799458 -0.384566
vn -0.440496 0.801785 -0.403861
vn -0.644209 -0.642595 -0.414809
vn -0.626497 -0.637367 -0.448625
vn 0.345923 0.804287 -0.483176
vn 0.345923 0.804287 -0.483176
vn 0.546736 -0.607138 -0.576596
vn 0.546736 -0.607138 -0.576596
vn -0.345922 0.804287 -0.483176
vn -0.345922 0.804287 -0.483176
vn -0.546736 -0.607138 -0.576596
vn -0.546736 -0.607138 -0.576596
vn 0.010498 0.664038 0.747625
vn 0.010498 0.664038 0.747625
vn 0.029070 0.678298 0.734211
vn 0.030624 0.679470 0.733064
vn -0.338793 -0.712726 0.614199
vn -0.338793 -0.712726 0.614199
vn -0.143253 -0.711806 0.687612
vn -0.191200 -0.714889 0.672589
vn -0.010498 0.664038 0.747625
vn -0.010498 0.664038 0.747625
vn -0.030624 0.679470 0.733064
vn -0.029070 0.678298 0.734211
vn 0.338794 -0.712726 0.614199
vn 0.338794 -0.712726 0.614199
vn 0.191201 -0.714889 0.672589
vn 0.143254 -0.711806 0.687612
vn 0.000000 0.689816 0.723985
vn 0.000000 0.689816 0.723985
vn 0.000000 -0.700751 0.713406
vn 0.000000 -0.700751 0.713406
vn 0.632495 -0.774357 0.017910
vn 0.641807 -0.766859 -0.003323
vn 0.656897 -0.751150 -0.065272
vn 0.640200 -0.759803 -0.113330
vn 0.503811 -0.834468 0.223244
vn 0.521551 -0.828792 0.202703
vn 0.366233 -0.865511 0.341709
vn 0.395763 -0.860472 0.320872
vn 0.833526 0.552409 0.008862
vn 0.844524 0.535160 -0.019579
vn 0.850460 0.512574 -0.118266
vn 0.857754 0.507633 -0.081040
vn 0.732290 0.629588 0.259557
vn 0.745660 0.628597 0.221036
vn 0.647653 0.582704 0.490919
vn 0.675750 0.605900 0.419818
vn 0.282911 -0.873397 0.396407
vn 0.282911 -0.873397 0.396407
vn 0.580288 0.526190 0.621603
vn 0.580288 0.526190 0.621603
vn -0.274826 -0.880052 0.387271
vn -0.274826 -0.880052 0.387271
vn -0.353802 -0.874657 0.331361
vn -0.380154 -0.870910 0.311446
vn -0.591822 0.490195 0.639887
vn -0.591822 0.490195 0.639887
vn -0.666232 0.541762 0.512473
vn -0.700272 0.564519 0.436964
vn -0.488346 -0.845076 0.217633
vn -0.507227 -0.838547 0.198895
vn -0.755238 0.597161 0.270212
vn -0.765419 0.601956 0.227557
vn -0.637578 -0.770166 0.018389
vn -0.649310 -0.760517 -0.003061
vn -0.843763 0.536637 0.009152
vn -0.854316 0.519383 -0.019627
vn -0.655044 -0.746939 -0.114018
vn -0.670095 -0.739259 -0.066844
vn -0.866792 0.491796 -0.082516
vn -0.860236 0.495944 -0.118467
vn -0.838708 0.503384 -0.207780
vn -0.838709 0.503384 -0.207780
vn -0.621091 -0.756492 -0.204856
vn -0.621091 -0.756492 -0.204856
vn -0.032402 -0.717758 -0.695538
vn -0.032402 -0.717758 -0.695538
vn 0.007092 -0.726493 -0.687137
vn 0.013625 -0.727818 -0.685635
vn -0.361806 0.665286 -0.653062
vn -0.361806 0.665286 -0.653062
vn -0.141589 0.660385 -0.737458
vn -0.199446 0.665200 -0.719534
vn -0.000000 -0.733610 -0.679571
vn -0.000000 -0.733610 -0.679571
vn 0.000000 0.645805 -0.763502
vn 0.000000 0.645805 -0.763502
vn -0.007091 -0.726491 -0.687139
vn -0.013624 -0.727817 -0.685636
vn 0.141589 0.660387 -0.737456
vn 0.199446 0.665203 -0.719532
vn 0.605313 -0.770376 -0.200295
vn 0.605313 -0.770376 -0.200295
vn 0.032404 -0.717755 -0.695542
vn 0.032404 -0.717755 -0.695541
vn 0.828938 0.521093 -0.203285
vn 0.828938 0.521093 -0.203285
vn 0.361805 0.665290 -0.653060
vn 0.361805 0.665290 -0.653060
vn -0.994792 0.097324 -0.030287
vn -0.991737 0.070226 0.107358
vn -0.991391 0.069892 0.110721
vn -0.996012 0.088863 0.007948
vn 0.991737 0.070227 0.107358
vn 0.994792 0.097325 -0.030287
vn 0.996012 0.088864 0.007948
vn 0.991391 0.069893 0.110720
vn 0.912645 0.169986 -0.371731
vn 0.931211 0.160691 -0.327146
vn -0.912645 0.169986 -0.371731
vn -0.931211 0.160691 -0.327146
vn 0.746055 0.227410 -0.625848
vn 0.789180 0.215660 -0.575053
vn -0.746055 0.227410 -0.625848
vn -0.789180 0.215660 -0.575053
vn 0.621565 0.252480 -0.741560
vn 0.621565 0.252480 -0.741560
vn -0.621565 0.252480 -0.741560
vn -0.621565 0.252480 -0.741560
vn -0.977686 0.060559 0.201151
vn -0.977686 0.060559 0.201151
vn 0.977686 0.060559 0.201151
vn 0.977686 0.060559 0.201152
vn -0.243726 0.000692 0.969844
vn -0.078974 -0.002121 0.996875
vn -0.098235 -0.001797 0.995162
vn -0.243726 0.000692 0.969844
vn 0.098235 -0.001797 0.995162
vn 0.000000 -0.003431 0.999994
vn 0.000000 -0.003431 0.999994
vn 0.078974 -0.002121 0.996874
vn 0.243725 0.000692 0.969844
vn 0.243725 0.000692 0.969844
vn 0.898957 -0.310029 0.309449
vn 0.978975 -0.203705 -0.010595
vn 0.975071 -0.218500 0.038667
vn 0.867897 -0.334290 0.367431
vn 0.742995 -0.412707 0.526907
vn 0.666044 -0.450086 0.594818
vn 0.550247 -0.491804 0.674801
vn 0.550247 -0.491804 0.674801
vn -0.665596 -0.450929 0.594680
vn -0.742741 -0.413192 0.526885
vn -0.549591 -0.493058 0.674421
vn -0.549591 -0.493058 0.674421
vn -0.867897 -0.334289 0.367431
vn -0.898957 -0.310029 0.309449
vn -0.975070 -0.218504 0.038668
vn -0.978974 -0.203710 -0.010594
vn -0.976048 -0.182792 -0.117972
vn -0.976598 -0.182852 -0.113231
vn -0.946069 -0.178596 -0.270290
vn -0.946069 -0.178596 -0.270290
vn -0.095739 -0.132571 -0.986539
vn -0.247424 -0.138449 -0.958965
vn -0.247424 -0.138449 -0.958965
vn -0.083819 -0.131980 -0.987702
vn 0.000000 -0.126889 -0.991917
vn 0.000000 -0.126889 -0.991917
vn 0.247422 -0.138451 -0.958965
vn 0.247422 -0.138451 -0.958965
vn 0.095738 -0.132571 -0.986539
vn 0.083819 -0.131981 -0.987702
vn 0.976049 -0.182788 -0.117972
vn 0.976599 -0.182847 -0.113231
vn 0.946069 -0.178595 -0.270289
vn 0.946069 -0.178595 -0.270289
vn 0.004945 0.999983 0.002958
vn 0.006308 0.999954 -0.007215
vn -0.029228 -0.999423 -0.017316
vn -0.011071 -0.999860 0.012582
vn -0.004988 -0.999972 0.005669
vn -0.004404 -0.999987 -0.002609
vn -0.006308 0.999954 -0.007215
vn -0.004945 0.999983 0.002958
vn 0.011071 -0.999860 0.012582
vn 0.029228 -0.999423 -0.017316
vn 0.004404 -0.999987 -0.002609
vn 0.004988 -0.999972 0.005669
vn -0.041086 0.998656 -0.031589
vn 0.049327 -0.998489 0.024214
vn 0.034556 -0.999036 0.027077
vn 0.041086 0.998656 -0.031589
vn -0.049327 -0.998489 0.024213
vn -0.034556 -0.999036 0.027077
vn -0.068359 0.997417 -0.022074
vn 0.066736 -0.997714 0.010672
vn 0.058137 -0.998127 0.019034
vn 0.068359 0.997417 -0.022074
vn -0.066736 -0.997714 0.010672
vn -0.058137 -0.998127 0.019034
vn 0.000000 0.999954 -0.009632
vn 0.000000 -0.999966 0.008294
vn 0.000000 -0.999966 0.008294
vn 0.118263 0.990845 0.065116
vn -0.130062 -0.989044 -0.069832
vn -0.103803 -0.992988 -0.056576
vn -0.118262 0.990845 0.065116
vn 0.130062 -0.989044 -0.069832
vn 0.103803 -0.992988 -0.056576
vn 0.128619 0.990201 0.054392
vn -0.142598 -0.987700 -0.064152
vn -0.118151 -0.991828 -0.048151
vn 0.142598 -0.987700 -0.064152
vn 0.000000 -0.999923 -0.012438
vn 0.000000 -0.999923 -0.012438
vn 0.118151 -0.991828 -0.048151
vn -0.128619 0.990201 0.054393
vn 0.000000 0.999921 0.012561
vn 0.121590 -0.988870 0.085742
vn 0.009366 -0.999922 0.008310
vn 0.015539 -0.999769 0.014875
vn 0.239272 -0.958935 0.152294
vn 0.048133 0.998508 -0.025794
vn 0.007609 0.999895 -0.012357
vn 0.284719 -0.928732 0.237471
vn 0.268721 -0.904114 0.332214
vn 0.068143 0.997612 -0.011284
vn -0.016762 -0.911045 0.411967
vn -0.015386 -0.911128 0.411837
vn -0.000644 0.999966 -0.008252
vn -0.403490 -0.862470 0.305517
vn -0.330765 -0.859403 0.389898
vn -0.067914 0.997625 -0.011508
vn -0.208907 -0.971275 0.113937
vn -0.378403 -0.900182 0.215599
vn -0.048225 0.998505 -0.025733
vn -0.021624 -0.999717 0.009893
vn -0.037950 -0.999118 0.017968
vn -0.007738 0.999894 -0.012353
vn -0.028762 0.999407 0.018907
vn 0.002534 -0.999994 -0.002541
vn 0.026673 -0.999492 -0.017419
vn 0.099604 -0.993013 -0.063282
vn 0.111035 -0.991310 -0.070536
vn -0.116592 0.990401 0.074243
vn 0.105769 -0.993010 -0.052388
vn 0.132094 -0.988528 -0.073236
vn -0.137915 0.987426 0.077258
vn -0.000000 -0.999913 -0.013221
vn -0.000000 -0.999913 -0.013221
vn 0.000000 0.999915 0.013043
vn -0.100077 -0.992942 -0.063642
vn -0.105769 -0.993010 -0.052388
vn -0.132094 -0.988528 -0.073236
vn -0.111656 -0.991209 -0.070982
vn 0.117108 0.990312 0.074616
vn 0.137915 0.987426 0.077258
vn -0.002502 -0.999994 -0.002541
vn -0.026588 -0.999495 -0.017422
vn 0.028690 0.999409 0.018909
vn -0.702890 -0.707108 0.077095
vn -0.702890 -0.707108 0.077095
vn -0.702890 -0.707108 0.077095
vn -0.702890 -0.707108 0.077095
vn -0.000155 -0.716073 0.698026
vn -0.000155 -0.716073 0.698026
vn -0.000155 -0.716073 0.698025
vn -0.000155 -0.716073 0.698026
vn -0.675879 -0.003345 0.737005
vn -0.675879 -0.003345 0.737005
vn -0.675879 -0.003345 0.737005
vn -0.675879 -0.003345 0.737005
vn 0.702890 -0.707108 0.077095
vn 0.702890 -0.707108 0.077095
vn 0.702890 -0.707108 0.077095
vn 0.702890 -0.707108 0.077095
vn 0.675879 0.003345 0.737005
vn 0.675879 0.003345 0.737005
vn 0.675879 0.003345 0.737005
vn 0.675879 0.003345 0.737005
vn -0.713157 0.696715 0.077433
vn -0.713157 0.696715 0.077433
vn -0.713157 0.696715 0.077433
vn -0.713157 0.696715 0.077433
vn 0.000155 0.716073 0.698025
vn 0.000155 0.716073 0.698025
vn 0.000155 0.716073 0.698025
vn 0.000155 0.716073 0.698025
vn 0.713157 0.696715 0.077433
vn 0.713157 0.696715 0.077433
vn 0.713157 0.696715 0.077433
vn 0.713157 0.696715 0.077433
vn -0.734033 0.004504 -0.679099
vn -0.734033 0.004504 -0.679099
vn -0.734033 0.004504 -0.679099
vn -0.734033 0.004504 -0.679099
vn 0.000000 0.686419 -0.727206
vn 0.000000 0.686419 -0.727206
vn 0.000000 0.686419 -0.727206
vn 0.000000 0.686419 -0.727206
vn 0.744628 0.008832 -0.667421
vn 0.744628 0.008832 -0.667421
vn 0.744628 0.008832 -0.667421
vn 0.744628 0.008832 -0.667421
vn -0.000169 -0.696679 -0.717383
vn -0.000169 -0.696679 -0.717383
vn -0.000169 -0.696679 -0.717383
vn -0.000169 -0.696679 -0.717383
vn -0.470574 -0.685412 0.555672
vn -0.535212 -0.670086 0.514328
vn -0.563360 -0.706923 0.427651
vn -0.552220 -0.691500 0.465705
vn -0.016435 -0.680270 0.732777
vn 0.470888 -0.685264 0.555587
vn 0.017494 -0.680000 0.733004
vn -0.715356 0.000014 0.698760
vn -0.075924 0.000080 0.997114
vn -0.075802 0.000080 0.997123
vn -0.715411 0.000014 0.698704
vn 0.535141 -0.670063 0.514431
vn 0.552220 -0.691500 0.465705
vn 0.563360 -0.706923 0.427651
vn 0.075802 -0.000080 0.997123
vn 0.715411 -0.000014 0.698704
vn 0.715356 -0.000014 0.698760
vn 0.075924 -0.000080 0.997114
vn -0.535142 0.670063 0.514430
vn -0.470888 0.685265 0.555587
vn -0.552220 0.691501 0.465704
vn -0.563360 0.706923 0.427651
vn -0.017494 0.679999 0.733004
vn 0.016435 0.680270 0.732778
vn 0.470574 0.685412 0.555671
vn 0.535213 0.670086 0.514327
vn 0.563360 0.706923 0.427651
vn 0.552220 0.691501 0.465704
vn -0.578537 0.728192 0.367466
vn -0.578537 0.728192 0.367466
vn 0.578537 0.728192 0.367466
vn 0.578537 0.728192 0.367466
vn -0.578537 -0.728192 0.367466
vn -0.578537 -0.728192 0.367466
vn 0.578537 -0.728192 0.367466
vn 0.578537 -0.728192 0.367466
vn -0.876500 0.000000 -0.481403
vn -0.876500 0.000000 -0.481403
vn -0.876500 0.000000 -0.481403
vn -0.876500 0.000000 -0.481403
vn 0.000000 0.754162 -0.656688
vn 0.000000 0.754162 -0.656688
vn 0.000000 0.754162 -0.656688
vn 0.000000 0.754162 -0.656688
vn 0.869487 -0.003682 -0.493943
vn 0.869487 -0.003682 -0.493943
vn 0.869487 -0.003682 -0.493943
vn 0.869487 -0.003682 -0.493943
vn 0.000112 -0.749014 -0.662554
vn 0.000112 -0.749014 -0.662554
vn 0.000112 -0.749014 -0.662554
vn 0.000112 -0.749014 -0.662554
vn -0.702777 -0.707106 -0.078139
vn -0.702777 -0.707106 -0.078139
vn -0.702777 -0.707106 -0.078139
vn -0.702777 -0.707106 -0.078139
vn 0.000168 -0.696526 0.717532
vn 0.000168 -0.696526 0.717532
vn 0.000168 -0.696526 0.717532
vn 0.000168 -0.696526 0.717532
vn -0.733912 0.004390 0.679231
vn -0.733911 0.004390 0.679231
vn -0.733912 0.004390 0.679231
vn -0.733911 0.004390 0.679231
vn 0.702777 -0.707106 -0.078139
vn 0.702777 -0.707106 -0.078139
vn 0.702777 -0.707106 -0.078139
vn 0.702777 -0.707106 -0.078139
vn 0.733911 -0.004390 0.679231
vn 0.733911 -0.004390 0.679231
vn 0.733911 -0.004390 0.679231
vn 0.733911 -0.004390 0.679231
vn -0.693678 0.716219 -0.076432
vn -0.693678 0.716219 -0.076432
vn -0.693678 0.716219 -0.076432
vn -0.693678 0.716219 -0.076432
vn -0.000168 0.696526 0.717531
vn -0.000168 0.696526 0.717531
vn -0.000168 0.696526 0.717531
vn -0.000168 0.696526 0.717531
vn 0.693678 0.716219 -0.076432
vn 0.693678 0.716219 -0.076432
vn 0.693678 0.716219 -0.076432
vn 0.693678 0.716219 -0.076432
vn -0.675735 -0.003264 -0.737137
vn -0.675735 -0.003264 -0.737137
vn -0.675735 -0.003264 -0.737137
vn -0.675735 -0.003264 -0.737137
vn 0.000000 0.725383 -0.688345
vn 0.000000 0.725383 -0.688345
vn 0.000000 0.725383 -0.688345
vn 0.000000 0.725383 -0.688345
vn 0.666878 -0.006650 -0.745138
vn 0.666877 -0.006650 -0.745138
vn 0.666877 -0.006650 -0.745138
vn 0.666878 -0.006650 -0.745138
vn 0.000153 -0.716188 -0.697907
vn 0.000153 -0.716188 -0.697907
vn 0.000153 -0.716188 -0.697907
vn 0.000153 -0.716188 -0.697907
vn -0.689302 -0.711972 -0.134010
vn -0.689302 -0.711972 -0.134010
vn -0.688984 -0.711649 -0.137324
vn -0.688871 -0.711535 -0.138474
vn -0.000022 -0.717999 0.696044
vn -0.000022 -0.717999 0.696044
vn -0.000022 -0.717999 0.696044
vn -0.000022 -0.717999 0.696044
vn -0.773051 -0.000597 0.634343
vn -0.773051 -0.000597 0.634343
vn -0.773051 -0.000597 0.634343
vn -0.773051 -0.000597 0.634343
vn 0.689302 -0.711972 -0.134010
vn 0.689302 -0.711972 -0.134010
vn 0.689302 -0.711972 -0.134010
vn 0.689302 -0.711972 -0.134010
vn 0.773051 0.000597 0.634343
vn 0.773051 0.000597 0.634343
vn 0.773051 0.000597 0.634343
vn 0.773051 0.000597 0.634343
vn -0.674251 0.726888 -0.130460
vn -0.674251 0.726888 -0.130460
vn -0.674251 0.726888 -0.130460
vn -0.674251 0.726888 -0.130460
vn 0.000022 0.717999 0.696044
vn 0.000022 0.717999 0.696044
vn 0.000022 0.717999 0.696044
vn 0.000022 0.717999 0.696044
vn 0.674250 0.726888 -0.130460
vn 0.674250 0.726888 -0.130460
vn 0.674250 0.726888 -0.130460
vn 0.674250 0.726888 -0.130460
vn -0.650205 -0.005006 -0.759742
vn -0.650205 -0.005006 -0.759742
vn -0.650205 -0.005006 -0.759742
vn -0.650205 -0.005006 -0.759742
vn 0.000000 0.737279 -0.675588
vn 0.000000 0.737279 -0.675588
vn 0.000000 0.737279 -0.675588
vn 0.000000 0.737279 -0.675588
vn 0.635980 -0.010327 -0.771636
vn 0.635980 -0.010327 -0.771636
vn 0.635980 -0.010327 -0.771636
vn 0.635980 -0.010327 -0.771636
vn 0.000312 -0.722042 -0.691850
vn 0.000312 -0.722042 -0.691850
vn 0.000312 -0.722042 -0.691850
vn 0.000312 -0.722042 -0.691849
vn 0.000000 0.000000 1.000000
vn 0.000000 0.000000 1.000000
vn 0.000000 0.000000 1.000000
vn 0.000000 0.000000 1.000000
vn 0.000000 1.000000 0.000000
vn 0.000000 1.000000 0.000000
vn 0.000000 1.000000 0.000000
vn 0.000000 1.000000 0.000000
vn 0.000000 0.000000 -1.000000
vn 0.000000 0.000000 -1.000000
vn 0.000000 0.000000 -1.000000
vn 0.000000 0.000000 -1.000000
vn 0.000000 -1.000000 0.000000
vn 0.000000 -1.000000 0.000000
vn 0.000000 -1.000000 0.000000
vn 0.000000 -1.000000 0.000000
vn 0.994039 0.000000 0.109029
vn 0.994039 0.000000 0.109029
vn 0.994039 0.000000 0.109029
vn 0.994039 0.000000 0.109029
vn -0.994039 -0.000000 0.109029
vn -0.994039 -0.000000 0.109029
vn -0.994039 -0.000000 0.109029
vn -0.994039 -0.000000 0.109029
vn 0.000000 1.000000 0.000000
vn 0.000000 1.000000 0.000000
vn 0.000000 1.000000 -0.000000
vn 0.000000 1.000000 -0.000000
vn 0.000000 0.000000 -1.000000
vn 0.000000 0.000000 -1.000000
vn 0.000000 0.000000 -1.000000
vn 0.000000 0.000000 -1.000000
vn 0.000000 -1.000000 -0.000000
vn 0.000000 -1.000000 -0.000000
vn 0.000000 -1.000000 -0.000000
vn 0.000000 -1.000000 -0.000000
vn 0.781280 0.000000 0.624181
vn 0.781280 0.000000 0.624181
vn -0.781280 0.000000 0.624181
vn -0.781280 0.000000 0.624181
vn 0.000000 1.000000 -0.000000
vn 0.000000 1.000000 -0.000000
vn 0.843897 0.000000 0.536505
vn 0.843897 0.000000 0.536505
vn 0.000000 -1.000000 -0.000000
vn 0.000000 -1.000000 -0.000000
vn -0.843897 0.000000 0.536505
vn -0.843897 0.000000 0.536505
vn 0.000000 0.000000 1.000000
vn 0.000000 0.000000 1.000000
vn 0.000000 0.000000 1.000000
vn 0.000000 0.000000 1.000000
vn 0.000000 1.000000 0.000000
vn 0.000000 1.000000 0.000000
vn 0.000000 1.000000 0.000000
vn 0.000000 1.000000 0.000000
vn 0.000000 0.000000 -1.000000
vn 0.000000 0.000000 -1.000000
vn 0.000000 0.000000 -1.000000
vn 0.000000 0.000000 -1.000000
vn 0.000000 -1.000000 -0.000000
vn 0.000000 -1.000000 -0.000000
vn 0.000000 -1.000000 -0.000000
vn 0.000000 -1.000000 -0.000000
vn 0.993876 0.000000 -0.110505
vn 0.993876 0.000000 -0.110505
vn 0.993876 0.000000 -0.110505
vn 0.993876 0.000000 -0.110505
vn -0.993876 0.000000 -0.110505
vn -0.993876 0.000000 -0.110505
vn -0.993876 0.000000 -0.110505
vn -0.993876 0.000000 -0.110505
vn 0.000000 0.000000 1.000000
vn 0.000000 0.000000 1.000000
vn 0.000000 0.000000 1.000000
vn 0.000000 0.000000 1.000000
vn 0.000000 1.000000 -0.000000
vn 0.000000 1.000000 -0.000000
vn 0.000000 1.000000 -0.000000
vn 0.000000 1.000000 -0.000000
vn 0.000000 0.000000 -1.000000
vn 0.000000 0.000000 -1.000000
vn 0.000000 0.000000 -1.000000
vn 0.000000 0.000000 -1.000000
vn 0.000000 -1.000000 0.000000
vn 0.000000 -1.000000 0.000000
vn 0.000000 -1.000000 0.000000
vn 0.000000 -1.000000 0.000000
vn 0.981595 0.000000 -0.190974
vn 0.981595 0.000000 -0.190974
vn 0.981595 0.000000 -0.190974
vn 0.981595 0.000000 -0.190974
vn -0.981595 0.000001 -0.190974
vn -0.981595 0.000001 -0.190974
vn -0.981595 0.000001 -0.190974
vn -0.981595 0.000001 -0.190974
vn -0.553102 -0.559727 0.617077
vn -0.553102 -0.559727 0.617077
vn -0.553102 -0.559727 0.617077
vn 0.572569 -0.579076 0.580375
vn 0.572569 -0.579076 0.580375
vn 0.572569 -0.579076 0.580375
vn -0.572573 0.579075 0.580372
vn -0.572573 0.579075 0.580372
vn -0.572573 0.579075 0.580372
vn 0.553102 0.559727 0.617077
vn 0.553102 0.559727 0.617077
vn 0.553102 0.559727 0.617077
vn -0.618763 0.556361 -0.554613
vn -0.618763 0.556361 -0.554613
vn -0.618763 0.556361 -0.554613
vn 0.618763 0.556361 -0.554613
vn 0.618762 0.556361 -0.554613
vn 0.618763 0.556361 -0.554613
vn -0.571745 -0.579009 -0.581254
vn -0.571745 -0.579009 -0.581254
vn -0.571745 -0.579009 -0.581254
vn 0.594696 -0.601837 -0.533038
vn 0.594696 -0.601837 -0.533038
vn 0.594696 -0.601837 -0.533038
vn -0.590144 0.739374 -0.324126
vn -0.590144 0.739374 -0.324126
vn -0.590144 0.739374 -0.324126
vn 0.590144 0.739374 -0.324126
vn 0.590144 0.739374 -0.324126
vn 0.590144 0.739374 -0.324126
vn 0.583545 -0.727403 -0.361054
vn 0.583545 -0.727403 -0.361054
vn 0.583545 -0.727403 -0.361054
vn -0.590144 -0.739374 -0.324124
vn -0.590144 -0.739374 -0.324124
vn -0.590144 -0.739374 -0.324125
vn -0.594881 -0.602214 0.532404
vn -0.594881 -0.602214 0.532404
vn -0.594881 -0.602214 0.532404
vn 0.571585 -0.579055 0.581366
vn 0.571585 -0.579055 0.581366
vn 0.571585 -0.579055 0.581366
vn -0.571586 0.579055 0.581365
vn -0.571586 0.579055 0.581365
vn -0.571586 0.579055 0.581365
vn 0.594881 0.602212 0.532407
vn 0.594881 0.602212 0.532407
vn 0.594881 0.602212 0.532407
vn -0.534204 0.598623 -0.596889
vn -0.534204 0.598623 -0.596889
vn -0.534203 0.598623 -0.596889
vn 0.534203 0.598623 -0.596889
vn 0.534204 0.598623 -0.596889
vn 0.534204 0.598623 -0.596889
vn -0.572436 -0.579129 -0.580454
vn -0.572436 -0.579129 -0.580454
vn -0.572436 -0.579129 -0.580454
vn 0.552726 -0.559538 -0.617586
vn 0.552726 -0.559538 -0.617586
vn 0.552726 -0.559538 -0.617586
vn -0.614924 -0.604163 0.506810
vn -0.614924 -0.604163 0.506810
vn -0.614924 -0.604163 0.506810
vn 0.617335 -0.607068 0.500366
vn 0.617335 -0.607068 0.500366
vn 0.617335 -0.607068 0.500366
vn -0.617335 0.607068 0.500366
vn -0.617335 0.607068 0.500366
vn -0.617335 0.607068 0.500366
vn 0.614924 0.604163 0.506810
vn 0.614924 0.604163 0.506810
vn 0.614924 0.604163 0.506810
vn -0.501937 0.614145 -0.609003
vn -0.501938 0.614145 -0.609003
vn -0.501937 0.614145 -0.609003
vn 0.501937 0.614145 -0.609003
vn 0.501938 0.614145 -0.609003
vn 0.501937 0.614145 -0.609003
vn -0.563339 -0.582656 -0.585800
vn 0.530861 -0.550760 -0.644089
vn 0.530861 -0.550760 -0.644089
vn 0.530861 -0.550760 -0.644089
s off
g polySurface1
usemtl standardSurface2SG
f 1/1/1 2/2/2 91/3/3 79/4/4
s 1
f 94/5/5 95/6/6 68/7/7 69/8/8
s off
f 85/9/9 86/10/10 8/11/11 7/12/12
s 2
f 27/13/13 28/14/14 105/15/15 106/16/16
s 3
f 101/17/17 102/18/18 23/19/19 88/20/20
s 4
f 27/13/21 106/16/22 107/21/23 32/22/24
s off
f 1/1/25 79/4/26 80/23/27 10/24/28
s 5
f 93/25/29 94/5/30 69/8/31 70/26/32
s off
f 84/27/33 85/9/34 7/12/35 9/28/36
s 6
f 32/22/37 107/21/38 108/29/39 34/30/40
s off
f 10/24/41 80/23/42 81/31/43 14/32/44
s 7
f 92/33/45 93/25/46 70/26/47 72/34/48
s off
f 83/35/49 84/27/50 9/28/51 13/36/52
s 8
f 34/30/53 108/29/54 109/37/55 35/38/56
s off
f 14/32/57 81/31/58 82/39/59 17/40/60
s 9
f 73/41/61 92/33/62 74/42/63
s off
f 82/43/64 83/35/65 13/36/66 17/44/67
s 10
f 104/45/68 105/15/69 28/14/70 36/46/71
s off
f 8/11/72 86/10/73 87/47/74 19/48/75
s 11
f 68/7/76 95/6/77 96/49/78 76/50/79
s off
f 90/51/80 91/3/81 2/2/82 20/52/83
s 12
f 103/53/84 104/45/85 36/46/86 38/54/87
s off
f 19/55/88 87/56/89 88/20/90 23/19/91
s 13
f 76/50/92 96/49/93 97/57/94 78/58/95
s off
f 89/59/96 90/60/97 20/61/98 24/62/99
f 7/12/100 8/11/101 28/14/102 27/13/103
f 2/2/104 1/1/105 30/63/106 29/64/107
f 1/1/108 10/24/109 31/65/110 30/63/111
f 9/28/112 7/12/113 27/13/114 32/22/115
f 10/24/116 14/32/117 33/66/118 31/65/119
f 13/36/120 9/28/121 32/22/122 34/30/123
f 14/32/124 17/40/125 35/38/126 33/66/127
f 17/44/128 13/36/129 34/30/130 35/38/131
f 8/11/132 19/48/133 36/46/134 28/14/135
f 20/52/136 2/2/137 29/64/138 37/67/139
f 19/55/140 23/19/141 38/54/142 36/46/143
s 14
f 23/19/144 102/18/145 103/53/146 38/54/147
s off
f 24/62/148 20/61/149 37/67/150 39/68/151
s 15
f 3/69/152 4/70/153 41/71/154 40/72/155
f 6/73/156 5/74/157 43/75/158 42/76/159
f 5/74/157 12/77/160 44/78/161 43/75/158
f 11/79/162 3/69/152 40/72/155 45/80/163
f 12/77/160 16/81/164 46/82/165 44/78/161
f 15/83/166 11/79/162 45/80/163 47/84/167
f 16/81/164 18/85/168 48/280/169 46/82/165
f 18/276/168 15/83/166 47/84/167 48/86/169
f 4/70/153 22/87/170 49/292/171 41/71/154
f 21/298/172 6/73/156 42/76/159 50/90/173
f 22/286/170 26/91/174 51/92/175 49/88/171
f 99/93/176 100/94/177 25/95/178 52/96/179
f 25/95/178 21/89/172 50/305/173 52/96/179
s off
f 53/97/180 54/98/181 67/99/182 66/100/183
f 55/101/184 56/102/185 69/8/186 68/7/187
f 56/102/188 57/103/189 70/26/190 69/8/191
f 58/104/192 53/97/193 66/100/194 71/105/195
f 57/103/196 59/106/197 72/34/198 70/26/199
f 60/107/200 58/104/201 71/105/202 73/41/203
f 59/106/204 61/108/205 74/42/206 72/34/207
f 61/270/208 60/107/209 73/41/210 74/42/211
f 54/98/212 62/109/213 75/110/214 67/99/215
f 63/272/216 55/101/217 68/7/218 76/50/219
f 62/274/220 64/112/221 77/113/222 75/110/223
s 28
f 97/57/224 98/114/225 65/115/226 78/58/227
s off
f 65/115/228 63/111/229 76/50/230 78/58/231
s 7
f 71/105/232 93/25/46 92/33/45 73/41/233
s 5
f 66/100/234 94/5/30 93/25/29 71/105/235
s 1
f 66/100/236 67/99/237 95/6/6 94/5/5
s 11
f 96/49/78 95/6/77 67/99/238 75/110/239
s 13
f 97/57/94 96/49/93 75/110/240 77/113/241
s 28
f 64/112/242 98/114/225 97/57/224 77/113/243
s 15
f 26/91/174 100/94/177 99/93/176 51/92/175
s 3
f 24/62/244 102/18/18 101/17/17 89/59/245
s 14
f 103/53/146 102/18/145 24/62/246 39/68/247
s 12
f 37/67/248 104/45/85 103/53/84 39/68/249
s 10
f 29/64/250 105/15/69 104/45/68 37/67/251
s 2
f 106/16/16 105/15/15 29/64/252 30/63/253
s 4
f 107/21/23 106/16/22 30/63/254 31/65/255
s 6
f 108/29/39 107/21/38 31/65/256 33/66/257
s 8
f 109/37/55 108/29/54 33/66/258 35/38/259
s 9
f 74/42/63 92/33/62 72/34/260
s off
f 111/116/261 110/117/262 53/97/263 58/104/264
f 112/118/265 111/116/266 58/104/267 60/107/268
f 113/271/269 112/118/270 60/107/271 61/270/272
f 114/120/273 113/119/274 61/108/275 59/106/276
f 115/121/277 114/120/278 59/106/279 57/103/280
f 116/122/281 115/121/282 57/103/283 56/102/284
f 117/123/285 116/122/286 56/102/287 55/101/288
f 118/273/289 117/123/290 55/101/291 63/272/292
f 119/125/293 118/124/294 63/111/295 65/115/296
s 29
f 98/114/297 120/126/298 119/125/299 65/115/300
f 121/127/301 120/126/298 98/114/297 64/112/302
s off
f 122/275/303 121/127/304 64/112/305 62/274/306
f 123/129/307 122/128/308 62/109/309 54/98/310
f 110/117/311 123/129/312 54/98/313 53/97/314
s 30
f 124/130/315 125/131/316 145/132/317 144/133/318
f 125/131/316 124/130/315 127/134/319 126/135/320
f 126/135/320 127/134/319 161/136/321 160/296/322
s 31
f 128/138/323 129/139/324 163/140/325 162/290/326
f 129/139/324 128/138/323 131/142/327 130/143/328
f 130/143/328 131/142/327 147/144/329 146/145/330
s 32
f 132/146/331 133/147/332 141/148/333 140/149/334
f 133/147/332 132/146/331 135/150/335 134/151/336
f 134/151/336 135/150/335 165/152/337 164/304/338
s 33
f 136/154/339 137/155/340 143/156/341 142/157/342
f 137/155/340 136/154/339 139/158/343 138/159/344
f 138/159/344 139/158/343 167/160/345 166/308/346
s 32
f 140/149/334 141/148/333 149/162/347 148/163/348
s 33
f 142/157/342 143/156/341 151/164/349 150/165/350
s 30
f 144/133/318 145/132/317 153/166/351 152/167/352
s 31
f 146/145/330 147/144/329 155/168/353 154/169/354
s 32
f 148/163/348 149/162/347 157/170/355 156/284/356
s 33
f 150/165/350 151/164/349 159/172/357 158/310/358
s 30
f 152/167/352 153/166/351 156/171/359 157/281/360
s 31
f 154/169/354 155/168/353 158/173/361 159/285/362
s 34
f 160/137/363 161/293/364 169/174/365 168/175/366
s 35
f 162/141/367 163/297/368 171/176/369 170/177/370
s 34
f 164/153/371 165/309/372 178/178/373 179/179/374
s 35
f 166/161/375 167/303/376 172/180/377 173/181/378
s 34
f 168/175/366 169/174/365 176/182/379 177/183/380
s 35
f 170/177/370 171/176/369 174/184/381 175/185/382
f 173/181/378 172/180/377 175/185/382 174/184/381
s 34
f 177/183/380 176/182/379 179/179/374 178/178/373
s 38
f 180/186/383 181/187/384 232/188/385 233/189/386
f 181/187/384 180/186/383 183/190/387 182/191/388
f 182/191/388 183/190/387 189/192/389 188/193/390
s 39
f 184/194/391 185/195/392 234/196/393 235/197/394
f 185/195/392 184/194/391 187/198/395 186/199/396
f 186/199/396 187/198/395 191/200/397 190/201/398
s 38
f 188/193/390 189/192/389 193/202/399 192/278/400
s 39
f 190/201/398 191/200/397 195/204/401 194/282/402
s 40
f 192/203/403 193/283/404 197/206/405 196/207/406
s 41
f 194/205/407 195/277/408 199/208/409 198/209/410
s 40
f 196/207/406 197/206/405 201/210/411 200/211/412
s 41
f 198/209/410 199/208/409 203/212/413 202/213/414
s 40
f 200/211/412 201/210/411 205/214/415 204/215/416
s 41
f 202/213/414 203/212/413 207/216/417 206/217/418
s 40
f 204/215/416 205/214/415 211/218/419 210/219/420
s 41
f 206/217/418 207/216/417 209/220/421 208/221/422
f 208/221/422 209/220/421 215/222/423 214/306/424
s 40
f 210/219/420 211/218/419 213/224/425 212/300/426
s 42
f 212/225/427 213/307/428 217/226/429 216/227/430
s 43
f 214/223/431 215/299/432 219/228/433 218/229/434
s 42
f 216/227/430 217/226/429 221/230/435 220/231/436
s 43
f 218/229/434 219/228/433 223/232/437 222/233/438
s 42
f 220/231/436 221/230/435 226/234/439 227/235/440
s 43
f 222/233/438 223/232/437 230/236/441 231/237/442
s 38
f 224/238/443 225/295/444 233/189/386 232/188/385
s 42
f 225/239/445 224/288/446 227/235/440 226/234/439
s 39
f 228/240/447 229/287/448 235/197/394 234/196/393
s 43
f 229/241/449 228/294/450 231/237/442 230/236/441
s 44
f 125/131/451 126/135/452 129/139/453 130/143/454
s 45
f 135/150/455 132/146/456 137/155/457 138/159/458
f 132/146/456 140/149/459 143/156/460 137/155/457
s 44
f 145/132/461 125/131/451 130/143/454 146/145/462
s 45
f 140/149/459 148/163/463 151/164/464 143/156/460
s 44
f 153/166/465 145/132/461 146/145/462 154/169/466
s 45
f 148/163/463 156/284/467 159/172/468 151/164/464
s 44
f 156/171/469 153/166/465 154/169/466 159/285/470
f 126/135/452 160/296/471 163/140/472 129/139/453
s 45
f 165/152/473 135/150/455 138/159/458 166/308/474
s 46
f 160/137/475 168/175/476 171/176/477 163/297/478
f 173/181/479 174/184/480 177/183/481 178/178/482
f 178/178/482 165/309/483 166/161/484 173/181/479
s 47
f 183/190/485 180/186/486 185/195/487 186/199/488
f 189/192/489 183/190/485 186/199/488 190/201/490
f 193/202/491 189/192/489 190/201/490 194/282/492
s 48
f 198/209/493 197/206/494 193/283/495 194/205/496
f 202/213/497 201/210/498 197/206/494 198/209/493
f 206/217/499 205/214/500 201/210/498 202/213/497
f 206/217/499 208/221/501 211/218/502 205/214/500
f 213/224/503 211/218/502 208/221/501 214/306/504
s 49
f 217/226/505 213/307/506 214/223/507 218/229/508
f 222/233/509 221/230/510 217/226/505 218/229/508
f 228/294/511 225/239/512 226/234/513 231/237/514
s 47
f 234/196/515 233/189/516 225/295/517 228/240/518
f 180/186/486 233/189/516 234/196/515 185/195/487
s 46
f 168/175/476 177/183/481 174/184/480 171/176/477
s 49
f 226/234/513 221/230/510 222/233/509 231/237/514
s 15
f 40/72/155 41/71/154 127/134/519 124/130/520
s 50
f 123/242/521 110/243/522 131/142/523 128/138/524
s 15
f 42/76/159 43/75/158 133/147/525 134/151/526
s 50
f 116/244/527 117/245/528 139/158/529 136/154/530
s 15
f 43/75/158 44/78/161 141/148/531 133/147/525
s 50
f 115/246/532 116/244/527 136/154/530 142/157/533
s 15
f 45/80/163 40/72/155 124/130/520 144/133/534
s 50
f 110/243/522 111/247/535 147/144/536 131/142/523
s 15
f 44/78/161 46/82/165 149/162/537 141/148/531
s 50
f 114/248/538 115/246/532 142/157/533 150/165/539
s 15
f 47/84/167 45/80/163 144/133/534 152/167/540
s 50
f 111/247/535 112/249/541 155/168/542 147/144/536
s 15
f 46/82/165 48/280/169 157/170/543 149/162/537
s 50
f 113/250/544 114/248/538 150/165/539 158/310/545
s 15
f 48/86/169 47/84/167 152/167/540 157/281/543
s 50
f 112/249/541 113/311/544 158/173/545 155/168/542
s 15
f 41/71/154 49/292/171 161/136/546 127/134/519
s 50
f 122/251/547 123/242/521 128/138/524 162/290/548
s 15
f 50/90/173 42/76/159 134/151/526 164/304/549
s 50
f 117/245/528 118/302/550 167/160/551 139/158/529
s 15
f 49/88/171 51/92/175 169/174/552 161/293/546
s 50
f 121/253/553 122/291/547 162/141/548 170/177/554
f 119/254/555 120/255/556 175/185/557 172/180/558
s 15
f 99/93/176 52/96/179 179/179/559 176/182/560
f 52/96/179 50/305/173 164/153/549 179/179/559
s 50
f 118/252/550 119/254/555 172/180/558 167/303/551
s 15
f 51/92/175 99/93/176 176/182/560 169/174/552
s 50
f 120/255/556 121/253/553 170/177/554 175/185/557
s 52
f 80/256/561 79/257/562 181/187/563 182/191/564
s 15
f 3/69/152 11/79/162 187/198/565 184/194/566
s 52
f 81/258/567 80/256/561 182/191/564 188/193/568
s 15
f 11/79/162 15/83/166 191/200/569 187/198/565
s 52
f 82/259/570 81/258/567 188/193/568 192/278/571
s 15
f 15/83/166 18/276/168 195/204/572 191/200/569
s 52
f 83/260/573 82/279/570 192/203/571 196/207/574
s 15
f 18/85/168 16/81/164 199/208/575 195/277/572
s 52
f 84/261/576 83/260/573 196/207/574 200/211/577
s 15
f 16/81/164 12/77/160 203/212/578 199/208/575
s 52
f 85/262/579 84/261/576 200/211/577 204/215/580
s 15
f 12/77/160 5/74/157 207/216/581 203/212/578
f 5/74/157 6/73/156 209/220/582 207/216/581
s 52
f 86/263/583 85/262/579 204/215/580 210/219/584
f 87/264/585 86/263/583 210/219/584 212/300/586
s 15
f 6/73/156 21/298/172 215/222/587 209/220/582
s 52
f 88/265/588 87/301/585 212/225/586 216/227/589
s 15
f 21/89/172 25/95/178 219/228/590 215/299/587
s 52
f 101/266/591 88/265/588 216/227/589 220/231/592
s 15
f 25/95/178 100/94/177 223/232/593 219/228/590
s 52
f 90/267/594 89/268/595 227/235/596 224/288/597
s 15
f 26/91/174 22/286/170 229/241/598 230/236/599
s 52
f 91/269/600 90/289/594 224/238/597 232/188/601
s 15
f 22/87/170 4/70/153 235/197/602 229/287/598
s 52
f 79/257/562 91/269/600 232/188/601 181/187/563
s 15
f 4/70/153 3/69/152 184/194/566 235/197/602
s 52
f 89/268/595 101/266/591 220/231/592 227/235/596
s 15
f 100/94/177 26/91/174 230/236/599 223/232/593
s off
f 236/312/603 238/313/604 254/314/605 256/315/606
f 237/316/607 236/312/608 241/317/609 240/318/610
f 238/319/611 237/316/612 243/320/613 242/321/614
f 239/322/615 241/317/616 257/323/617 259/324/618
f 240/318/619 239/325/620 247/326/621 246/327/622
f 242/321/623 244/328/624 249/329/625 248/330/626
f 244/328/627 243/320/628 246/327/629 245/331/630
f 245/331/631 247/326/632 253/332/633 252/333/634
f 248/330/635 250/334/636 255/335/637 254/336/638
f 250/334/639 249/329/640 252/333/641 251/337/642
f 251/337/643 253/332/644 259/338/645 258/339/646
f 256/315/647 255/340/648 258/341/649 257/323/650
s 53
f 260/342/651 262/343/652 277/344/653 276/345/654
f 261/346/655 260/342/651 265/347/656 264/348/657
s 54
f 262/349/658 261/350/659 267/351/660 266/352/661
s 53
f 263/353/662 265/347/656 279/354/663 278/355/664
s 54
f 264/356/665 263/357/666 271/358/667 270/359/668
s 56
f 266/352/669 268/360/670 273/361/671 272/362/672
f 268/360/670 267/351/673 270/359/674 269/363/675
f 269/363/675 271/358/676 275/364/677 274/365/678
f 272/362/672 273/361/671 281/366/679 280/367/680
f 274/365/678 275/364/677 285/368/681 284/369/682
s 53
f 276/345/654 277/344/653 291/370/683 290/371/684
f 278/355/664 279/354/663 288/372/685 287/373/686
s off
f 280/367/687 282/374/688 289/375/689 291/376/690
f 282/374/691 281/366/692 284/369/693 283/377/694
f 283/377/695 285/368/696 287/378/697 286/379/698
f 286/379/699 288/372/700 290/371/701 289/375/702
f 292/380/703 294/381/704 310/382/705 312/383/706
f 293/384/707 292/380/708 297/385/709 296/386/710
f 294/387/711 293/384/712 299/388/713 298/389/714
f 295/390/715 297/385/716 313/391/717 315/392/718
f 296/386/719 295/393/720 303/394/721 302/395/722
f 298/389/723 300/396/724 305/397/725 304/398/726
f 300/396/727 299/388/728 302/395/729 301/399/730
f 301/399/731 303/394/732 309/400/733 308/401/734
f 304/398/735 306/402/736 311/403/737 310/404/738
f 306/402/739 305/397/740 308/401/741 307/405/742
f 307/405/743 309/400/744 315/406/745 314/407/746
f 312/383/747 311/408/748 314/409/749 313/391/750
s 57
f 316/410/751 318/411/752 334/412/753 336/413/754
s off
f 317/414/755 316/410/756 321/415/757 320/416/758
f 318/417/759 317/414/760 323/418/761 322/419/762
f 319/420/763 321/415/764 337/421/765 339/422/766
f 320/416/767 319/423/768 327/424/769 326/425/770
f 322/419/771 324/426/772 329/427/773 328/428/774
f 324/426/775 323/418/776 326/425/777 325/429/778
f 325/429/779 327/424/780 333/430/781 332/431/782
f 328/428/783 330/432/784 335/433/785 334/434/786
f 330/432/787 329/427/788 332/431/789 331/435/790
f 331/435/791 333/430/792 339/436/793 338/437/794
f 336/413/795 335/438/796 338/439/797 337/421/798
f 237/316/799 240/318/800 246/327/801 243/320/802
f 244/328/803 245/331/804 252/333/805 249/329/806
f 250/334/807 251/337/808 258/339/809 255/335/810
f 256/315/811 257/323/812 241/317/813 236/312/814
f 239/325/815 259/338/816 253/332/817 247/326/818
f 254/336/819 238/319/820 242/321/821 248/330/822
s 54
f 261/350/659 264/356/665 270/359/668 267/351/660
s 58
f 268/360/823 269/363/824 274/365/825 273/361/826
s off
f 282/374/827 283/377/828 286/379/829 289/375/830
s 59
f 276/345/831 279/354/832 265/347/833 260/342/834
s 54
f 263/357/666 278/440/835 275/364/836 271/358/667
f 277/441/837 262/349/658 266/352/661 272/362/838
s 58
f 273/361/826 274/365/825 284/369/839 281/366/840
s 54
f 275/364/836 278/440/835 287/378/841 285/368/842
s 59
f 279/354/832 276/345/831 290/371/843 288/372/844
s 54
f 277/441/837 272/362/838 280/367/845 291/376/846
s off
f 293/384/847 296/386/848 302/395/849 299/388/850
f 300/396/851 301/399/852 308/401/853 305/397/854
f 306/402/855 307/405/856 314/407/857 311/403/858
f 312/383/859 313/391/860 297/385/861 292/380/862
f 295/393/863 315/406/864 309/400/865 303/394/866
f 310/404/867 294/387/868 298/389/869 304/398/870
f 317/414/871 320/416/872 326/425/873 323/418/874
f 324/426/875 325/429/876 332/431/877 329/427/878
f 330/432/879 331/435/880 338/437/881 335/433/882
f 336/413/883 337/421/884 321/415/885 316/410/886
f 319/423/887 339/436/888 333/430/889 327/424/890
f 334/434/891 318/417/892 322/419/893 328/428/894
f 236/312/895 237/316/896 238/313/897
f 239/322/898 240/318/899 241/317/900
f 242/321/901 243/320/902 244/328/903
f 245/331/904 246/327/905 247/326/906
f 248/330/907 249/329/908 250/334/909
f 251/337/910 252/333/911 253/332/912
f 254/314/913 255/340/914 256/315/915
f 257/323/916 258/341/917 259/324/918
s 53
f 260/342/651 261/346/655 262/343/652
f 263/353/662 264/348/657 265/347/656
s 56
f 266/352/669 267/351/673 268/360/670
f 269/363/675 270/359/674 271/358/676
s off
f 280/367/919 281/366/920 282/374/921
f 283/377/922 284/369/923 285/368/924
f 286/379/925 287/373/926 288/372/927
f 289/375/928 290/371/929 291/370/930
f 292/380/931 293/384/932 294/381/933
f 295/390/934 296/386/935 297/385/936
f 298/389/937 299/388/938 300/396/939
f 301/399/940 302/395/941 303/394/942
f 304/398/943 305/397/944 306/402/945
f 307/405/946 308/401/947 309/400/948
f 310/382/949 311/408/950 312/383/951
f 313/391/952 314/409/953 315/392/954
f 316/410/955 317/414/956 318/411/957
f 319/420/958 320/416/959 321/415/960
f 322/419/961 323/418/962 324/426/963
f 325/429/964 326/425/965 327/424/966
f 328/428/967 329/427/968 330/432/969
f 331/435/970 332/431/971 333/430/972
s 57
f 334/412/753 335/438/973 336/413/754
s off
f 337/421/974 338/442/975 339/422/976
